<?xml version="1.0" encoding="UTF-8"?><svg id="_레이어_2" xmlns="http://www.w3.org/2000/svg" width="1255.27" height="498.97" viewBox="0 0 1255.27 498.97"><g id="_레이어_1-2"><path d="M869.4,81.33s120.63,67.65,218.29,5.91C1087.69,87.24,1025.64-.08,1024.67,0c-50.36,93.68-138.9,68.15-140.51,70.13-7.64,9.4-14.76,11.2-14.76,11.2Z" fill="#f5bc26"/><path d="M887.53,48.51c-5.11,10.29-21.84,28.82-38.67,34.27,57.58,38.46,124.74,54.78,192.76,40.48,43.94-9.24,85.2-31.44,120.74-58.29,12.19-9.21,23.52-18.36,34.72-29.14l58.19,125.4c-39.17,29.61-86.95,52.2-135.09,62.63-23.04,5.07-46.02,7.81-69.56,6.86l-13.44-.55c-5.77-.23-11.26-.77-17.05-1.45-40.37-4.7-77.18-16.09-111.35-38.08-16.23-10.44-38.37-32.07-52.68-46.81-9.24-9.52-16.88-20.46-22.65-32.41l-9.99-20.68c-6.71,3.7-25.74,4.15-32.41,2.5l.3-19.63c19.31-.55,54.48-10.07,70.47-51.22" fill="#f5bc26"/><path d="M85.45,248.16H10.44V73.33h67.7c12.53,0,21.46,3.26,26.8,9.79,5.33,6.53,8.01,16.01,8.01,28.44s-1.68,22.26-5.05,29.02c-3.37,6.76-7.95,11.23-13.75,13.4v1.63c16.82,3.89,25.23,19.27,25.23,46.16,0,13.99-2.76,25.22-8.27,33.68-5.51,8.47-14.07,12.7-25.67,12.7ZM65.43,111.56h-13.23v26.11h12.88c5.33,0,8.01-4.35,8.01-13.05s-2.55-13.05-7.66-13.05ZM68.57,178.46h-16.36v28.67h16.01c5.92,0,8.88-4.81,8.88-14.45s-2.84-14.22-8.53-14.22Z" fill="#010000"/><path d="M165.15,248.16h-44.03l33.76-174.83h64.56l33.76,174.83h-44.03l-4.87-27.74h-34.46l-4.7,27.74ZM186.03,126.95l-8.53,48.95h19.14l-8.35-48.95h-2.26Z" fill="#010000"/><path d="M377.11,248.16h-39.33l-31.85-62.01c-.58-1.09-1.04-2.72-1.39-4.9-.35-2.17-.58-5.05-.7-8.62h-.87v75.53h-41.77V73.33h39.33l31.85,62.01c.58,1.09,1.04,2.72,1.39,4.9.35,2.18.58,5.05.7,8.62h.87v-75.53h41.77v174.83Z" fill="#010000"/><path d="M429.15,248.16h-44.03l33.76-174.83h64.56l33.76,174.83h-44.03l-4.87-27.74h-34.46l-4.7,27.74ZM450.03,126.95l-8.53,48.95h19.14l-8.35-48.95h-2.26Z" fill="#010000"/><path d="M641.11,248.16h-39.33l-31.85-62.01c-.58-1.09-1.04-2.72-1.39-4.9-.35-2.17-.58-5.05-.7-8.62h-.87v75.53h-41.77V73.33h39.33l31.85,62.01c.58,1.09,1.04,2.72,1.39,4.9.35,2.18.58,5.05.7,8.62h.87v-75.53h41.77v174.83Z" fill="#010000"/><path d="M693.15,248.16h-44.03l33.76-174.83h64.56l33.76,174.83h-44.03l-4.87-27.74h-34.46l-4.7,27.74ZM714.03,126.95l-8.53,48.95h19.14l-8.35-48.95h-2.26Z" fill="#010000"/><path d="M103.37,322.74h-30.28v130.07H31.33v-130.07H1.04v-44.76h102.33v44.76Z" fill="#010000"/><path d="M198.39,386.84h-41.77v21.21h51.16v44.76h-92.93v-174.83h91.89l-5.22,44.76h-44.9v23.54h41.77v40.56Z" fill="#010000"/><path d="M312.2,402.69l3.13,47.09c-8.94,4.82-19.96,7.23-33.07,7.23-12.42,0-22.68-1.83-30.8-5.48-8.12-3.65-14.56-9.21-19.32-16.67-4.76-7.46-8.09-16.94-10.01-28.44-1.91-11.5-2.87-25.1-2.87-40.79s.9-28.56,2.7-39.98c1.8-11.42,5.02-20.98,9.66-28.67,4.64-7.69,10.93-13.48,18.88-17.37,7.95-3.88,18.01-5.83,30.19-5.83,2.67,0,5.66.2,8.96.58,3.31.39,6.55.9,9.75,1.52,3.19.62,6.21,1.36,9.05,2.21,2.84.86,5.13,1.83,6.87,2.91l-6.27,42.89c-9.28-2.64-17.58-3.96-24.89-3.96s-12.76.93-15.66,2.8c-2.9,1.86-4.35,5.59-4.35,11.19v73.2c2.67.78,5.37,1.36,8.09,1.75,2.72.39,5.54.58,8.44.58,11.6,0,22.1-2.25,31.5-6.76Z" fill="#010000"/><path d="M403.04,452.81v-61.77h-31.32v61.77h-41.77v-174.83h41.77v61.77h31.32v-61.77h41.77v174.83h-41.77Z" fill="#010000"/><path d="M581.6,452.81h-39.33l-31.85-62.01c-.58-1.09-1.04-2.72-1.39-4.9-.35-2.17-.58-5.05-.7-8.62h-.87v75.53h-41.77v-174.83h39.33l31.85,62.01c.58,1.09,1.04,2.72,1.39,4.89.35,2.18.58,5.05.7,8.62h.87v-75.53h41.77v174.83Z" fill="#010000"/><path d="M596.21,365.63c0-16,1.01-29.8,3.04-41.38,2.03-11.58,5.45-21.1,10.27-28.55,4.81-7.46,11.16-12.97,19.06-16.55,7.89-3.57,17.63-5.36,29.24-5.36s21.49,1.79,29.32,5.36c7.83,3.58,14.15,9.09,18.97,16.55,4.81,7.46,8.24,16.98,10.27,28.55,2.03,11.58,3.05,25.37,3.05,41.38s-.93,28.56-2.79,39.98c-1.86,11.42-5.13,20.94-9.83,28.56-4.7,7.62-11.02,13.33-18.97,17.13-7.95,3.81-17.96,5.71-30.02,5.71s-22.07-1.91-30.02-5.71c-7.95-3.81-14.27-9.52-18.97-17.13-4.7-7.61-7.98-17.13-9.83-28.56-1.86-11.42-2.78-24.75-2.78-39.98ZM641.11,336.49v72.73h17.4c5.8,0,9.95-.89,12.44-2.68,2.49-1.79,3.74-5.86,3.74-12.24v-72.73h-17.58c-5.57,0-9.63.9-12.18,2.68-2.55,1.79-3.83,5.87-3.83,12.24Z" fill="#010000"/><path d="M817.58,452.81h-83.53v-174.83h41.77v130.07h41.77v44.76Z" fill="#010000"/><path d="M822.79,365.63c0-16,1.01-29.8,3.04-41.38,2.03-11.58,5.45-21.1,10.27-28.55,4.81-7.46,11.16-12.97,19.06-16.55,7.89-3.57,17.63-5.36,29.24-5.36s21.49,1.79,29.32,5.36c7.83,3.58,14.15,9.09,18.97,16.55,4.81,7.46,8.24,16.98,10.27,28.55,2.03,11.58,3.05,25.37,3.05,41.38s-.93,28.56-2.79,39.98c-1.86,11.42-5.13,20.94-9.83,28.56-4.7,7.62-11.02,13.33-18.97,17.13-7.95,3.81-17.96,5.71-30.02,5.71s-22.07-1.91-30.02-5.71c-7.95-3.81-14.27-9.52-18.97-17.13-4.7-7.61-7.98-17.13-9.83-28.56-1.86-11.42-2.78-24.75-2.78-39.98ZM867.69,336.49v72.73h17.4c5.8,0,9.95-.89,12.44-2.68,2.49-1.79,3.74-5.86,3.74-12.24v-72.73h-17.58c-5.57,0-9.63.9-12.18,2.68-2.55,1.79-3.83,5.87-3.83,12.24Z" fill="#010000"/><path d="M1027.45,401.29v-7.46h-10.62v-42.89h50.29v93.48c-16.47,8.39-33.59,12.59-51.34,12.59-12.18,0-22.25-1.95-30.19-5.83-7.95-3.88-14.24-9.67-18.88-17.37-4.64-7.69-7.86-17.25-9.66-28.67-1.8-11.42-2.7-24.75-2.7-39.98,0-16.16,1.1-30.03,3.31-41.61,2.2-11.58,5.86-21.06,10.96-28.44,5.1-7.38,11.89-12.78,20.36-16.2,8.47-3.42,18.97-5.13,31.5-5.13,2.78,0,6.06.2,9.83.58,3.77.39,7.57.93,11.4,1.63,3.83.7,7.45,1.48,10.88,2.33,3.42.86,6.18,1.75,8.27,2.68l-6.26,42.89c-5.69-1.24-11.08-2.21-16.18-2.91-5.11-.7-9.86-1.05-14.27-1.05-9.17,0-15.61.93-19.32,2.8-3.71,1.86-5.57,5.59-5.57,11.19v79.26h13.75c5.1,0,8.79-.74,11.05-2.21,2.26-1.47,3.39-4.7,3.39-9.67Z" fill="#010000"/><path d="M1121.6,277.98l11.49,61.54h1.57l11.66-61.54h46.12l-37.59,127.28v47.55h-41.77v-47.55l-37.59-127.28h46.12Z" fill="#010000"/></g></svg>