<?xml version="1.0" encoding="UTF-8"?><svg id="_레이어_2" xmlns="http://www.w3.org/2000/svg" width="828.04" height="411.88" viewBox="0 0 828.04 411.88"><g id="_레이어_1-2"><path d="M166.06,125.1c-13.62,16.76-26.32,19.98-26.32,19.98,0,0,215.18,120.67,389.37,10.54C529.11,155.62,418.42-.15,416.69,0c-89.83,167.09-247.75,121.56-250.63,125.1Z" fill="#f5bc26"/><path d="M724.23,63.91c-19.97,19.22-40.18,35.54-61.92,51.97-63.39,47.89-136.99,87.48-215.37,103.97-121.34,25.52-241.13-3.59-343.83-72.2,30.01-9.72,59.85-42.76,68.97-61.12l-45.84-46.55C97.72,113.36,34.98,130.35.54,131.33l-.54,35.01c11.9,2.94,45.85,2.15,57.81-4.46l17.82,36.89c10.29,21.3,23.92,40.83,40.4,57.81,25.52,26.29,65.02,64.89,93.97,83.5,60.96,39.21,126.61,59.53,198.63,67.92,10.33,1.2,20.12,2.16,30.41,2.58l23.97.97c41.99,1.7,82.97-3.18,124.07-12.23,85.87-18.6,171.1-58.9,240.97-111.72l-103.8-223.68Z" fill="#f5bc26"/></g></svg>